<svg xmlns="http://www.w3.org/2000/svg" id="ab240924-3aa7-47b6-b62a-c874e6e3bd4f" width="742.571" height="670.208" data-name="Layer 1" viewBox="0 0 742.571 670.208"><title>publish_article</title><path fill="#e6e6e6" d="M683.67934,744.33854c3.98582,12.061-4.177,25.60376-4.177,25.60376s-14.62509-6.012-18.6109-18.073,4.177-25.60377,4.177-25.60377S679.69352,732.27753,683.67934,744.33854Z" transform="translate(-228.71431 -114.8962)"/><path fill="#e6e6e6" d="M955.90057,755.28362c-7.60006,10.17811-23.3763,11.24938-23.3763,11.24938s-3.45411-15.4307,4.14594-25.60881,23.37631-11.24938,23.37631-11.24938S963.50063,745.10552,955.90057,755.28362Z" transform="translate(-228.71431 -114.8962)"/><ellipse cx="573.571" cy="658.208" fill="#e6e6e6" rx="169" ry="12"/><rect width="654.863" height="419.404" x=".28" y=".371" fill="#e6e6e6"/><rect width="617.412" height="341.988" x="19.005" y="52.975" fill="#fff"/><rect width="654.863" height="27.821" fill="#6c63ff"/><circle cx="20.674" cy="14.224" r="5.156" fill="#fff"/><circle cx="40.247" cy="14.224" r="5.156" fill="#fff"/><circle cx="59.819" cy="14.224" r="5.156" fill="#fff"/><rect width="231.169" height="22.973" x="211.989" y="82.969" fill="#e6e6e6"/><rect width="231.169" height="8.701" x="211.989" y="137.083" fill="#e6e6e6"/><rect width="231.169" height="8.701" x="211.989" y="163.641" fill="#e6e6e6"/><rect width="119.445" height="8.701" x="211.989" y="190.536" fill="#e6e6e6"/><rect width="231.169" height="8.701" x="211.989" y="217.908" fill="#e6e6e6"/><rect width="231.169" height="8.701" x="211.989" y="245.28" fill="#e6e6e6"/><rect width="115.445" height="8.701" x="211.989" y="272.651" fill="#e6e6e6"/><rect width="231.169" height="8.701" x="211.989" y="300.023" fill="#e6e6e6"/><rect width="231.169" height="8.701" x="211.989" y="327.395" fill="#e6e6e6"/><rect width="73" height="24" x="370.434" y="360.969" fill="#6c63ff"/><path fill="#9f616a" d="M686.455,467.56081l-.55556.43651L673.0777,478.07155s-18.1549,19.11042-24.84355,8.59969,19.11043-22.93251,19.11043-22.93251l9.55521-6.68865Z" transform="translate(-228.71431 -114.8962)"/><path fill="#9f616a" d="M891.41432,480.46035s-7.64417,26.7546-9.55521,28.66564l-14.33282-21.02147,6.68865-11.46626Z" transform="translate(-228.71431 -114.8962)"/><path fill="#2f2e41" d="M868.95957,483.80467l13.3773,25.79908-6.68865,25.79907v81.21932l6.68865,121.3512H846.98258L813.53934,541.136,776.274,737.97334H739.9642l7.64417-126.12881-1.91105-73.57514s.95553-42.99846,10.51074-46.82055S868.95957,483.80467,868.95957,483.80467Z" transform="translate(-228.71431 -114.8962)"/><path fill="#2f2e41" d="M874.6927,733.19574l2.86657,11.46625s10.51073,7.64417,7.64417,16.24387-.95553,13.37729-7.64417,15.28834-28.66564,4.7776-27.71012-4.77761,0-29.62116,0-29.62116l2.86656-6.68865Z" transform="translate(-228.71431 -114.8962)"/><path fill="#2f2e41" d="M748.56389,733.19574,745.69732,744.662s-10.51073,7.64417-7.64417,16.24387.95552,13.37729,7.64417,15.28834,28.66564,4.7776,27.71012-4.77761,0-29.62116,0-29.62116l-2.86656-6.68865Z" transform="translate(-228.71431 -114.8962)"/><circle cx="556.637" cy="130.83" r="33.289" fill="#9f616a"/><polygon fill="#9f616a" points="582.465 145.179 587.057 183.06 545.732 183.06 549.176 150.918 582.465 145.179"/><path fill="#575a89" d="M731.84226,313.24412S772.92968,285.534,792.99563,285.534s70.70858,10.51073,78.35275,22.93251l-5.73313,133.773s13.3773,20.06594,5.73313,27.71011,1.43328,23.41028,1.43328,23.41028-59.72008-3.34433-79.786,5.25536-43.954,0-43.954,0,10.033-12.89953.47776-16.72162,5.73313-64.97545,5.73313-64.97545l-4.29985-38.69861Z" transform="translate(-228.71431 -114.8962)"/><path fill="#575a89" d="M862.74869,308.46651l7.16641-1.43328s46.34278,75.00842,43.47621,91.25229-21.02146,89.819-21.02146,89.819l-24.84356-6.68865,14.33282-69.75306L858.9266,353.376Z" transform="translate(-228.71431 -114.8962)"/><path fill="#575a89" d="M742.353,317.0662l-10.033-4.29984a101.99322,101.99322,0,0,1-5.87925,13.18423c-11.85237,22.29313-15.62,95.26744-15.62,95.26744l-41.08742,34.39876,14.33282,21.02147s53.47542-30.98388,62.10888-48.73158c7.21027-14.822,6.21089-67.36426,6.21089-67.36426Z" transform="translate(-228.71431 -114.8962)"/><path fill="#2f2e41" d="M812.56514,268.5355s33.79171-24.13693,16.09129-53.10125c-12.27954-20.0938-37.72458-18.50325-52.15828-15.64436a24.38475,24.38475,0,0,0-17.83882,14.03523c-2.41369,5.63195-2.41369,11.2639,7.24108,11.2639,19.30955,0,9.65477,14.48216,9.65477,14.48216s12.873,3.21826,9.65478,14.48216S812.56514,268.5355,812.56514,268.5355Z" transform="translate(-228.71431 -114.8962)"/></svg>